<?xml version="1.0" encoding="UTF-8" standalone="no"?>
<!-- Generator: Adobe Illustrator 19.0.0, SVG Export Plug-In . SVG Version: 6.00 Build 0)  -->

<svg
   xmlns:dc="http://purl.org/dc/elements/1.1/"
   xmlns:cc="http://creativecommons.org/ns#"
   xmlns:rdf="http://www.w3.org/1999/02/22-rdf-syntax-ns#"
   xmlns:svg="http://www.w3.org/2000/svg"
   xmlns="http://www.w3.org/2000/svg"
   xmlns:sodipodi="http://sodipodi.sourceforge.net/DTD/sodipodi-0.dtd"
   xmlns:inkscape="http://www.inkscape.org/namespaces/inkscape"
   version="1.1"
   id="Capa_1"
   x="0px"
   y="0px"
   viewBox="0 0 512.001 512.001"
   style="enable-background:new 0 0 512.001 512.001;"
   xml:space="preserve"
   inkscape:version="0.91 r13725"
   sodipodi:docname="favicon.svg"
   inkscape:export-filename="/home/atila/NodeProjects/rodada-cartola/src/favicon.png"
   inkscape:export-xdpi="43.07"
   inkscape:export-ydpi="43.07"><metadata
     id="metadata61"><rdf:RDF><cc:Work
         rdf:about=""><dc:format>image/svg+xml</dc:format><dc:type
           rdf:resource="http://purl.org/dc/dcmitype/StillImage" /></cc:Work></rdf:RDF></metadata><defs
     id="defs59" /><sodipodi:namedview
     pagecolor="#ffffff"
     bordercolor="#666666"
     borderopacity="1"
     objecttolerance="10"
     gridtolerance="10"
     guidetolerance="10"
     inkscape:pageopacity="0"
     inkscape:pageshadow="2"
     inkscape:window-width="1562"
     inkscape:window-height="769"
     id="namedview57"
     showgrid="false"
     inkscape:zoom="0.80654213"
     inkscape:cx="160.3594"
     inkscape:cy="209.88084"
     inkscape:window-x="0"
     inkscape:window-y="0"
     inkscape:window-maximized="0"
     inkscape:current-layer="Capa_1" /><g
     id="g15"
     transform="matrix(4.5885622,0,0,4.5885622,-918.67143,-1609.1032)"
     style="fill:#ec2f4c;fill-opacity:1"><g
       id="g17"
       style="fill:#ec2f4c;fill-opacity:1"><path
         d="m 301.593,428.463 -13.164,0 c -7.626,0 -13.83,-6.205 -13.83,-13.831 l 0,-16.328 c 0,-7.626 6.205,-13.831 13.83,-13.831 l 13.164,0 c 5.522,0 9.998,-4.477 9.998,-9.998 0,-5.521 -4.476,-9.998 -9.998,-9.998 l -13.164,0 c -18.652,0 -33.826,15.175 -33.826,33.827 l 0,16.328 c 0,18.652 15.175,33.827 33.826,33.827 l 13.164,0 0,0 c 5.522,0 9.998,-4.477 9.998,-9.998 0,-5.521 -4.477,-9.998 -9.998,-9.998 z"
         id="path19"
         inkscape:connector-curvature="0"
         style="fill:#ec2f4c;fill-opacity:1" /></g></g><g
     id="g21"
     transform="matrix(4.5885622,0,0,4.5885622,-918.67143,-1609.1032)"
     style="fill:#009fff;fill-opacity:1"><g
       id="g23"
       style="fill:#009fff;fill-opacity:1"><path
         d="m 233.81,396.47 -13.405,0 0,-11.997 13.405,0 c 5.522,0 9.998,-4.477 9.998,-9.998 0,-5.521 -4.476,-9.998 -9.998,-9.998 l -23.403,0 c -5.522,0 -9.998,4.477 -9.998,9.998 l 0,63.986 c 0,5.521 4.476,9.998 9.998,9.998 5.522,0 9.998,-4.477 9.998,-9.998 l 0,-21.995 13.405,0 c 5.522,0 9.998,-4.477 9.998,-9.998 0,-5.521 -4.476,-9.998 -9.998,-9.998 z"
         id="path25"
         inkscape:connector-curvature="0"
         style="fill:#009fff;fill-opacity:1" /></g></g><g
     id="g27" /><g
     id="g29" /><g
     id="g31" /><g
     id="g33" /><g
     id="g35" /><g
     id="g37" /><g
     id="g39" /><g
     id="g41" /><g
     id="g43" /><g
     id="g45" /><g
     id="g47" /><g
     id="g49" /><g
     id="g51" /><g
     id="g53" /><g
     id="g55" /></svg>