<?xml version="1.0" encoding="UTF-8" standalone="no"?>
<!-- Created with Inkscape (http://www.inkscape.org/) -->

<svg
   xmlns:dc="http://purl.org/dc/elements/1.1/"
   xmlns:cc="http://creativecommons.org/ns#"
   xmlns:rdf="http://www.w3.org/1999/02/22-rdf-syntax-ns#"
   xmlns:svg="http://www.w3.org/2000/svg"
   xmlns="http://www.w3.org/2000/svg"
   xmlns:xlink="http://www.w3.org/1999/xlink"
   xmlns:sodipodi="http://sodipodi.sourceforge.net/DTD/sodipodi-0.dtd"
   xmlns:inkscape="http://www.inkscape.org/namespaces/inkscape"
   width="192"
   height="192"
   id="svg2"
   version="1.1"
   inkscape:version="0.91 r13725"
   sodipodi:docname="logo-pwa.svg"
   inkscape:export-filename="/home/atila/NodeProjects/agregador-fc/img-src/logo-pwa.png"
   inkscape:export-xdpi="240"
   inkscape:export-ydpi="240">
  <defs
     id="defs4">
    <linearGradient
       inkscape:collect="always"
       id="linearGradient4180">
      <stop
         style="stop-color:#009fff;stop-opacity:1;"
         offset="0"
         id="stop4182" />
      <stop
         style="stop-color:#ec2f4c;stop-opacity:1"
         offset="1"
         id="stop4184" />
    </linearGradient>
    <linearGradient
       inkscape:collect="always"
       xlink:href="#linearGradient4180"
       id="linearGradient4186"
       x1="54.095322"
       y1="54.499935"
       x2="147.3904"
       y2="150.14771"
       gradientUnits="userSpaceOnUse" />
  </defs>
  <sodipodi:namedview
     id="base"
     pagecolor="#ffffff"
     bordercolor="#666666"
     borderopacity="1.0"
     inkscape:pageopacity="0.0"
     inkscape:pageshadow="2"
     inkscape:zoom="2.5301165"
     inkscape:cx="99.762289"
     inkscape:cy="93.395338"
     inkscape:document-units="px"
     inkscape:current-layer="layer5"
     showgrid="true"
     showguides="false"
     inkscape:guide-bbox="true"
     inkscape:window-width="1600"
     inkscape:window-height="872"
     inkscape:window-x="0"
     inkscape:window-y="0"
     inkscape:window-maximized="1"
     inkscape:snap-global="false">
    <inkscape:grid
       type="xygrid"
       id="grid2985"
       empspacing="5"
       visible="true"
       enabled="true"
       snapvisiblegridlinesonly="true" />
    <sodipodi:guide
       orientation="1,0"
       position="8,58.524064"
       id="guide3002" />
    <sodipodi:guide
       orientation="1,0"
       position="20,69.304813"
       id="guide3004" />
    <sodipodi:guide
       orientation="1,0"
       position="32,62.631016"
       id="guide3006" />
    <sodipodi:guide
       orientation="1,0"
       position="68,53.390374"
       id="guide3008" />
    <sodipodi:guide
       orientation="0,1"
       position="119.61497,8"
       id="guide3010" />
    <sodipodi:guide
       orientation="0,1"
       position="155.5508,20"
       id="guide3012" />
    <sodipodi:guide
       orientation="0,1"
       position="132.96257,32"
       id="guide3014" />
    <sodipodi:guide
       orientation="0,1"
       position="130.90909,68"
       id="guide3016" />
    <sodipodi:guide
       orientation="0,1"
       position="137.06952,184"
       id="guide3018" />
    <sodipodi:guide
       orientation="1,0"
       position="184,145.79679"
       id="guide3020" />
    <sodipodi:guide
       orientation="0,1"
       position="91.379679,172"
       id="guide3022" />
    <sodipodi:guide
       orientation="1,0"
       position="172,101.64706"
       id="guide3024" />
    <sodipodi:guide
       orientation="0,1"
       position="149.39037,160"
       id="guide3026" />
    <sodipodi:guide
       orientation="1,0"
       position="160,88.299465"
       id="guide3028" />
    <sodipodi:guide
       orientation="0,1"
       position="128.34225,124"
       id="guide3030" />
    <sodipodi:guide
       orientation="1,0"
       position="124,92.919786"
       id="guide3032" />
  </sodipodi:namedview>
  <metadata
     id="metadata7">
    <rdf:RDF>
      <cc:Work
         rdf:about="">
        <dc:format>image/svg+xml</dc:format>
        <dc:type
           rdf:resource="http://purl.org/dc/dcmitype/StillImage" />
        <dc:title />
      </cc:Work>
    </rdf:RDF>
  </metadata>
  <g
     inkscape:label="Horizontal rectangle"
     inkscape:groupmode="layer"
     id="layer1"
     transform="translate(0,-860.3622)"
     sodipodi:insensitive="true"
     style="display:none">
    <rect
       style="fill:none;stroke:#455a64;stroke-width:0.99999595;stroke-linejoin:round;stroke-miterlimit:4;stroke-dasharray:none;stroke-opacity:1"
       id="rect3034"
       width="175"
       height="127"
       x="8.5"
       y="892.86218"
       ry="4.1776319" />
  </g>
  <g
     inkscape:groupmode="layer"
     id="layer2"
     inkscape:label="Vertical rectangle"
     style="display:none"
     sodipodi:insensitive="true">
    <rect
       style="fill:none;stroke:#455a64;stroke-width:1.0004611;stroke-linejoin:round;stroke-miterlimit:4;stroke-dasharray:none;stroke-opacity:1"
       id="rect3037"
       width="126.99954"
       height="174.99954"
       x="32.500229"
       y="8.5002289"
       ry="4.8130932" />
  </g>
  <g
     inkscape:groupmode="layer"
     id="layer3"
     inkscape:label="circle"
     style="display:none"
     sodipodi:insensitive="true">
    <circle
       style="fill:none;stroke:#455a64;stroke-width:0.27840909;stroke-linejoin:round;stroke-miterlimit:4;stroke-dasharray:none;stroke-opacity:1"
       id="path3040"
       transform="matrix(3.6455219,0,0,3.6455219,-443.53724,-160.86308)"
       cx="148"
       cy="70.459892"
       r="24" />
  </g>
  <g
     inkscape:groupmode="layer"
     id="layer4"
     inkscape:label="Square"
     style="display:inline">
    <rect
       style="fill:url(#linearGradient4186);stroke:none;stroke-width:1.00005436;stroke-linejoin:round;stroke-miterlimit:4;stroke-dasharray:none;stroke-opacity:1;fill-opacity:1"
       id="rect3811"
       width="150.99994"
       height="150.99994"
       x="20.500031"
       y="20.500031"
       ry="10.897427" />
  </g>
  <g
     inkscape:groupmode="layer"
     id="layer5"
     inkscape:label="logo">
    <g
       id="g4257"
       transform="translate(1.9331841,-0.58413114)">
      <g
         style="fill:#ffffff;fill-opacity:1"
         id="g3"
         transform="matrix(0.2310871,0,0,0.2310871,34.907825,37.425718)">
        <g
           style="fill:#ffffff;fill-opacity:1"
           id="g5">
          <path
             style="fill:#ffffff;fill-opacity:1"
             id="path7"
             d="m 454.957,87.179 -39.4,0 L 284.103,14.17 C 277.721,5.579 267.501,0 256,0 244.5,0 234.28,5.579 227.897,14.169 l -131.453,73.01 -39.4,0 c -5.522,0 -9.998,4.476 -9.998,9.998 l 0,39.991 c 0,5.522 4.476,9.998 9.998,9.998 l 31.993,0 0,266.426 0,48.302 c 0,5.521 4.476,9.998 9.998,9.998 5.522,0 9.998,-4.477 9.998,-9.998 l 0,-31.195 15.747,8.869 0,48.427 c 0,5.521 4.476,9.998 9.998,9.998 5.522,0 9.998,-4.477 9.998,-9.998 l 0,-37.165 15.747,8.869 0,42.304 c 0,5.521 4.476,9.998 9.998,9.998 5.522,0 9.998,-4.477 9.998,-9.998 l 0,-31.041 15.747,8.869 0,22.172 c 0,5.521 4.476,9.998 9.998,9.998 5.522,0 9.998,-4.477 9.998,-9.998 l 0,-10.91 34.834,19.621 c 1.523,0.858 3.215,1.287 4.907,1.287 1.692,0 3.383,-0.429 4.907,-1.287 l 34.834,-19.621 0,10.91 c 0,5.521 4.476,9.998 9.998,9.998 5.522,0 9.998,-4.477 9.998,-9.998 l 0,-22.172 15.747,-8.869 0,31.041 c 0,5.521 4.476,9.998 9.998,9.998 5.522,0 9.998,-4.477 9.998,-9.998 l 0,-42.304 15.747,-8.869 0,37.165 c 0,5.521 4.476,9.998 9.998,9.998 5.522,0 9.998,-4.477 9.998,-9.998 l 0,-48.427 15.747,-8.869 0,31.195 c 0,5.521 4.476,9.998 9.998,9.998 5.522,0 9.998,-4.477 9.998,-9.998 l 0,-48.302 0,-266.426 31.993,0 c 5.522,0 9.998,-4.476 9.998,-9.998 l 0,-39.991 c -0.005,-5.522 -4.481,-9.998 -10.003,-9.998 z m -365.92,39.991 -21.996,0 0,-19.996 21.995,0 0,19.996 z M 256,19.996 c 8.269,0 14.997,6.728 14.997,14.997 0,8.269 -6.728,14.997 -14.997,14.997 -8.269,0 -14.997,-6.728 -14.997,-14.997 0.001,-8.27 6.728,-14.997 14.997,-14.997 z m -34.535,20.618 c 2.698,16.63 17.154,29.371 34.536,29.371 17.382,0 31.836,-12.739 34.534,-29.37 l 83.839,46.564 -236.748,0 83.839,-46.565 z m 181.504,367.135 -66.252,37.316 c -10e-4,0 -0.002,10e-4 -0.003,0.002 l -35.736,20.129 c -0.004,0.002 -0.007,0.004 -0.011,0.006 L 256,490.528 211.034,465.2 c -0.004,-0.002 -0.007,-0.004 -0.011,-0.006 l -35.736,-20.129 c -0.001,-10e-4 -0.002,-10e-4 -0.003,-0.002 l -66.252,-37.316 0,-260.581 293.936,0 0,260.583 z m 0,-280.579 -293.937,0 0,-19.996 293.936,0 0,19.996 z m 41.991,0 -21.995,0 0,-19.996 21.995,0 0,19.996 z"
             inkscape:connector-curvature="0" />
        </g>
      </g>
      <g
         style="fill:#ffffff"
         transform="matrix(0.11866132,0,0,0.11866132,63.688909,97.997482)"
         id="g9">
        <g
           style="fill:#ffffff"
           id="g11">
          <path
             style="fill:#ffffff"
             inkscape:connector-curvature="0"
             id="path13"
             d="m 348.684,243.616 c -0.018,-0.099 -0.036,-0.199 -0.057,-0.297 -8.294,-43.579 -46.67,-76.628 -92.627,-76.628 -45.957,0 -84.334,33.05 -92.627,76.628 -0.021,0.098 -0.039,0.198 -0.057,0.297 -1.053,5.632 -1.61,11.436 -1.61,17.369 0,30.663 14.715,57.95 37.451,75.183 0.172,0.152 0.341,0.306 0.525,0.447 0.29,0.225 0.591,0.423 0.898,0.61 15.568,11.348 34.723,18.055 55.42,18.055 20.687,0 39.834,-6.702 55.398,-18.04 0.267,-0.162 0.53,-0.334 0.786,-0.524 0.263,-0.196 0.513,-0.403 0.751,-0.619 22.683,-17.236 37.359,-44.49 37.359,-75.112 0,-5.932 -0.557,-11.737 -1.61,-17.369 z m -82.686,-56.237 c 27.602,3.731 50.448,22.657 59.778,48.071 l -31.927,0 -27.851,-20.236 0,-27.835 z m 15.905,64.107 -9.894,30.449 -32.017,0 -9.894,-30.45 25.902,-18.818 25.903,18.819 z m -35.9,-64.107 0,27.835 -27.852,20.236 -31.927,0 c 9.33,-25.414 32.177,-44.339 59.779,-48.071 z m -64.301,73.607 c 0,-1.866 0.093,-3.709 0.228,-5.541 l 28.429,0 11.619,35.759 -17.709,23.039 C 190.365,300.734 181.702,281.858 181.702,260.986 Z M 256,335.285 c -12.916,-0.001 -25.069,-3.319 -35.66,-9.139 l 18.614,-24.215 34.959,0 17.906,24.124 c -10.629,5.875 -22.837,9.23 -35.819,9.23 z m 51.861,-21.165 -17.587,-23.693 11.367,-34.98 28.43,0 c 0.136,1.832 0.228,3.675 0.228,5.541 -10e-4,20.805 -8.609,39.631 -22.438,53.132 z" />
        </g>
      </g>
      <g
         style="fill:#ffffff;fill-opacity:1"
         transform="matrix(0.41147701,0,0,0.41147701,-11.271892,-70.668106)"
         id="g15">
        <g
           style="fill:#ffffff;fill-opacity:1"
           id="g17">
          <path
             style="fill:#ffffff;fill-opacity:1"
             inkscape:connector-curvature="0"
             id="path19"
             d="m 301.593,428.463 -13.164,0 c -7.626,0 -13.83,-6.205 -13.83,-13.831 l 0,-16.328 c 0,-7.626 6.205,-13.831 13.83,-13.831 l 13.164,0 c 5.522,0 9.998,-4.477 9.998,-9.998 0,-5.521 -4.476,-9.998 -9.998,-9.998 l -13.164,0 c -18.652,0 -33.826,15.175 -33.826,33.827 l 0,16.328 c 0,18.652 15.175,33.827 33.826,33.827 l 13.164,0 0,0 c 5.522,0 9.998,-4.477 9.998,-9.998 0,-5.521 -4.477,-9.998 -9.998,-9.998 z" />
        </g>
      </g>
      <g
         style="fill:#ffffff;fill-opacity:1"
         transform="matrix(0.41147701,0,0,0.41147701,-11.271892,-70.668106)"
         id="g21">
        <g
           style="fill:#ffffff;fill-opacity:1"
           id="g23">
          <path
             style="fill:#ffffff;fill-opacity:1"
             inkscape:connector-curvature="0"
             id="path25"
             d="m 233.81,396.47 -13.405,0 0,-11.997 13.405,0 c 5.522,0 9.998,-4.477 9.998,-9.998 0,-5.521 -4.476,-9.998 -9.998,-9.998 l -23.403,0 c -5.522,0 -9.998,4.477 -9.998,9.998 l 0,63.986 c 0,5.521 4.476,9.998 9.998,9.998 5.522,0 9.998,-4.477 9.998,-9.998 l 0,-21.995 13.405,0 c 5.522,0 9.998,-4.477 9.998,-9.998 0,-5.521 -4.476,-9.998 -9.998,-9.998 z" />
        </g>
      </g>
    </g>
  </g>
</svg>
