<?xml version="1.0" encoding="UTF-8" standalone="no"?>
<!-- Generator: Adobe Illustrator 19.0.0, SVG Export Plug-In . SVG Version: 6.00 Build 0)  -->

<svg
   xmlns:dc="http://purl.org/dc/elements/1.1/"
   xmlns:cc="http://creativecommons.org/ns#"
   xmlns:rdf="http://www.w3.org/1999/02/22-rdf-syntax-ns#"
   xmlns:svg="http://www.w3.org/2000/svg"
   xmlns="http://www.w3.org/2000/svg"
   xmlns:xlink="http://www.w3.org/1999/xlink"
   xmlns:sodipodi="http://sodipodi.sourceforge.net/DTD/sodipodi-0.dtd"
   xmlns:inkscape="http://www.inkscape.org/namespaces/inkscape"
   version="1.1"
   id="Capa_1"
   x="0px"
   y="0px"
   viewBox="0 0 512.001 512.001"
   style="enable-background:new 0 0 512.001 512.001;"
   xml:space="preserve"
   inkscape:version="0.91 r13725"
   sodipodi:docname="logo.svg"
   inkscape:export-filename="/home/atila/NodeProjects/agregador-fc/src/assets/img/logo.png"
   inkscape:export-xdpi="90"
   inkscape:export-ydpi="90"><metadata
     id="metadata61"><rdf:RDF><cc:Work
         rdf:about=""><dc:format>image/svg+xml</dc:format><dc:type
           rdf:resource="http://purl.org/dc/dcmitype/StillImage" /></cc:Work></rdf:RDF></metadata><defs
     id="defs59"><linearGradient
       id="linearGradient4303-3"
       inkscape:collect="always"><stop
         id="stop4313"
         offset="0"
         style="stop-color:#ec2f4c;stop-opacity:1;" /><stop
         id="stop4315"
         offset="1"
         style="stop-color:#009fff;stop-opacity:1" /></linearGradient><linearGradient
       inkscape:collect="always"
       xlink:href="#linearGradient4303-3"
       id="linearGradient4309"
       x1="47.046001"
       y1="256.00049"
       x2="464.95999"
       y2="256.00049"
       gradientUnits="userSpaceOnUse" /></defs><sodipodi:namedview
     pagecolor="#ffffff"
     bordercolor="#666666"
     borderopacity="1"
     objecttolerance="10"
     gridtolerance="10"
     guidetolerance="10"
     inkscape:pageopacity="0"
     inkscape:pageshadow="2"
     inkscape:window-width="1562"
     inkscape:window-height="769"
     id="namedview57"
     showgrid="false"
     inkscape:zoom="0.8065421"
     inkscape:cx="-105.12437"
     inkscape:cy="216.78064"
     inkscape:window-x="0"
     inkscape:window-y="0"
     inkscape:window-maximized="0"
     inkscape:current-layer="Capa_1" /><g
     id="g3"
     style="fill:url(#linearGradient4309);fill-opacity:1.0"><g
       id="g5"
       style="fill:url(#linearGradient4309);fill-opacity:1.0"><path
         d="M454.957,87.179h-39.4L284.103,14.17C277.721,5.579,267.501,0,256,0c-11.5,0-21.72,5.579-28.103,14.169L96.444,87.179    h-39.4c-5.522,0-9.998,4.476-9.998,9.998v39.991c0,5.522,4.476,9.998,9.998,9.998h31.993v266.426v48.302    c0,5.521,4.476,9.998,9.998,9.998c5.522,0,9.998-4.477,9.998-9.998v-31.195l15.747,8.869v48.427c0,5.521,4.476,9.998,9.998,9.998    s9.998-4.477,9.998-9.998V450.83l15.747,8.869v42.304c0,5.521,4.476,9.998,9.998,9.998s9.998-4.477,9.998-9.998v-31.041    l15.747,8.869v22.172c0,5.521,4.476,9.998,9.998,9.998s9.998-4.477,9.998-9.998v-10.91l34.834,19.621    c1.523,0.858,3.215,1.287,4.907,1.287c1.692,0,3.383-0.429,4.907-1.287l34.834-19.621v10.91c0,5.521,4.476,9.998,9.998,9.998    c5.522,0,9.998-4.477,9.998-9.998v-22.172l15.747-8.869v31.041c0,5.521,4.476,9.998,9.998,9.998c5.522,0,9.998-4.477,9.998-9.998    v-42.304l15.747-8.869v37.165c0,5.521,4.476,9.998,9.998,9.998c5.522,0,9.998-4.477,9.998-9.998v-48.427l15.747-8.869v31.195    c0,5.521,4.476,9.998,9.998,9.998c5.522,0,9.998-4.477,9.998-9.998v-48.302V147.166h31.993c5.522,0,9.998-4.476,9.998-9.998    V97.177C464.955,91.655,460.479,87.179,454.957,87.179z M89.037,127.17H67.041v-19.996h21.995V127.17z M256,19.996    c8.269,0,14.997,6.728,14.997,14.997c0,8.269-6.728,14.997-14.997,14.997c-8.269,0-14.997-6.728-14.997-14.997    C241.004,26.723,247.731,19.996,256,19.996z M221.465,40.614c2.698,16.63,17.154,29.371,34.536,29.371s31.836-12.739,34.534-29.37    l83.839,46.564H137.626L221.465,40.614z M402.969,407.749l-66.252,37.316c-0.001,0-0.002,0.001-0.003,0.002l-35.736,20.129    c-0.004,0.002-0.007,0.004-0.011,0.006L256,490.528L211.034,465.2c-0.004-0.002-0.007-0.004-0.011-0.006l-35.736-20.129    c-0.001-0.001-0.002-0.001-0.003-0.002l-66.252-37.316V147.166h293.936V407.749z M402.969,127.17H109.032v-19.996h293.936V127.17z     M444.96,127.17h-21.995v-19.996h21.995V127.17z"
         id="path7"
         style="fill:url(#linearGradient4309);fill-opacity:1.0" /></g></g><g
     id="g9"
     transform="matrix(0.51349177,0,0,0.51349177,124.5466,262.11663)"><g
       id="g11"><path
         d="m 348.684,243.616 c -0.018,-0.099 -0.036,-0.199 -0.057,-0.297 -8.294,-43.579 -46.67,-76.628 -92.627,-76.628 -45.957,0 -84.334,33.05 -92.627,76.628 -0.021,0.098 -0.039,0.198 -0.057,0.297 -1.053,5.632 -1.61,11.436 -1.61,17.369 0,30.663 14.715,57.95 37.451,75.183 0.172,0.152 0.341,0.306 0.525,0.447 0.29,0.225 0.591,0.423 0.898,0.61 15.568,11.348 34.723,18.055 55.42,18.055 20.687,0 39.834,-6.702 55.398,-18.04 0.267,-0.162 0.53,-0.334 0.786,-0.524 0.263,-0.196 0.513,-0.403 0.751,-0.619 22.683,-17.236 37.359,-44.49 37.359,-75.112 0,-5.932 -0.557,-11.737 -1.61,-17.369 z m -82.686,-56.237 c 27.602,3.731 50.448,22.657 59.778,48.071 l -31.927,0 -27.851,-20.236 0,-27.835 z m 15.905,64.107 -9.894,30.449 -32.017,0 -9.894,-30.45 25.902,-18.818 25.903,18.819 z m -35.9,-64.107 0,27.835 -27.852,20.236 -31.927,0 c 9.33,-25.414 32.177,-44.339 59.779,-48.071 z m -64.301,73.607 c 0,-1.866 0.093,-3.709 0.228,-5.541 l 28.429,0 11.619,35.759 -17.709,23.039 C 190.365,300.734 181.702,281.858 181.702,260.986 Z M 256,335.285 c -12.916,-0.001 -25.069,-3.319 -35.66,-9.139 l 18.614,-24.215 34.959,0 17.906,24.124 c -10.629,5.875 -22.837,9.23 -35.819,9.23 z m 51.861,-21.165 -17.587,-23.693 11.367,-34.98 28.43,0 c 0.136,1.832 0.228,3.675 0.228,5.541 -10e-4,20.805 -8.609,39.631 -22.438,53.132 z"
         id="path13"
         inkscape:connector-curvature="0" /></g></g><g
     id="g15"
     transform="matrix(1.7806143,0,0,1.7806143,-199.83677,-467.76225)"
     style="fill:#000000;fill-opacity:1"><g
       id="g17"
       style="fill:#000000;fill-opacity:1"><path
         d="m 301.593,428.463 -13.164,0 c -7.626,0 -13.83,-6.205 -13.83,-13.831 l 0,-16.328 c 0,-7.626 6.205,-13.831 13.83,-13.831 l 13.164,0 c 5.522,0 9.998,-4.477 9.998,-9.998 0,-5.521 -4.476,-9.998 -9.998,-9.998 l -13.164,0 c -18.652,0 -33.826,15.175 -33.826,33.827 l 0,16.328 c 0,18.652 15.175,33.827 33.826,33.827 l 13.164,0 0,0 c 5.522,0 9.998,-4.477 9.998,-9.998 0,-5.521 -4.477,-9.998 -9.998,-9.998 z"
         id="path19"
         inkscape:connector-curvature="0"
         style="fill:#000000;fill-opacity:1" /></g></g><g
     id="g21"
     transform="matrix(1.7806143,0,0,1.7806143,-199.83677,-467.76225)"
     style="fill:#000000;fill-opacity:1"><g
       id="g23"
       style="fill:#000000;fill-opacity:1"><path
         d="m 233.81,396.47 -13.405,0 0,-11.997 13.405,0 c 5.522,0 9.998,-4.477 9.998,-9.998 0,-5.521 -4.476,-9.998 -9.998,-9.998 l -23.403,0 c -5.522,0 -9.998,4.477 -9.998,9.998 l 0,63.986 c 0,5.521 4.476,9.998 9.998,9.998 5.522,0 9.998,-4.477 9.998,-9.998 l 0,-21.995 13.405,0 c 5.522,0 9.998,-4.477 9.998,-9.998 0,-5.521 -4.476,-9.998 -9.998,-9.998 z"
         id="path25"
         inkscape:connector-curvature="0"
         style="fill:#000000;fill-opacity:1" /></g></g><g
     id="g27" /><g
     id="g29" /><g
     id="g31" /><g
     id="g33" /><g
     id="g35" /><g
     id="g37" /><g
     id="g39" /><g
     id="g41" /><g
     id="g43" /><g
     id="g45" /><g
     id="g47" /><g
     id="g49" /><g
     id="g51" /><g
     id="g53" /><g
     id="g55" /></svg>